<?xml version="1.0" encoding="UTF-8"?>
<svg width="16px" height="16px" viewBox="0 0 16 16" version="1.1" xmlns="http://www.w3.org/2000/svg" xmlns:xlink="http://www.w3.org/1999/xlink">
    <!-- Generator: Sketch 50 (54983) - http://www.bohemiancoding.com/sketch -->
    <title>设置未选中icon</title>
    <desc>Created with Sketch.</desc>
    <defs></defs>
    <g id="设置未选中icon" stroke="none" stroke-width="1" fill="none" fill-rule="evenodd">
        <g>
            <rect id="Rectangle-6" fill-opacity="0" fill="#CACACA" x="0" y="0" width="16" height="16"></rect>
            <path d="M5.7323341,2.47474781 L5.7323341,1 C5.7323341,0.44771525 6.18004935,1.01453063e-16 6.7323341,0 L9.2676659,0 C9.81995065,-1.01453063e-16 10.2676659,0.44771525 10.2676659,1 L10.2676659,2.57176246 C10.7551786,2.75758365 11.2123832,2.99823292 11.6304506,3.28548333 L12.9283449,2.53614372 C13.4066375,2.26000135 14.0182279,2.4238765 14.2943703,2.90216913 L15.5620362,5.09783087 C15.8381786,5.5761235 15.6743034,6.1877139 15.1960108,6.46385628 L14.131313,7.0785598 C14.1876946,7.39568232 14.2170269,7.72131593 14.2170269,8.05333333 C14.2170269,8.35151938 14.1933678,8.64455631 14.1477033,8.93090312 L15.1960108,9.53614372 C15.6743034,9.8122861 15.8381786,10.4238765 15.5620362,10.9021691 L14.2943703,13.0978309 C14.0182279,13.5761235 13.4066375,13.7399987 12.9283449,13.4638563 L11.7140257,12.7627688 C11.2735664,13.0759117 10.7878708,13.336622 10.2676659,13.5349042 L10.2676659,15 C10.2676659,15.5522847 9.81995065,16 9.2676659,16 L6.7323341,16 C6.18004935,16 5.7323341,15.5522847 5.7323341,15 L5.7323341,13.6319189 C5.15810776,13.4414005 4.62195933,13.1760835 4.13739365,12.8485519 L3.07165512,13.4638563 C2.5933625,13.7399987 1.9817721,13.5761235 1.70562972,13.0978309 L0.437963819,10.9021691 C0.161821444,10.4238765 0.325696599,9.8122861 0.803989223,9.53614372 L1.60470299,9.07385141 C1.54288246,8.74232507 1.51065778,8.40133585 1.51065778,8.05333333 C1.51065778,7.67170216 1.54941133,7.29850521 1.62345149,6.93697304 L0.803989223,6.46385628 C0.325696599,6.1877139 0.161821444,5.5761235 0.437963819,5.09783087 L1.70562972,2.90216913 C1.9817721,2.4238765 2.5933625,2.26000135 3.07165512,2.53614372 L4.22330596,3.20104964 C4.6850708,2.89967505 5.19183428,2.65407631 5.7323341,2.47474781 Z M8.00607143,10.7733333 C9.57269754,10.7733333 10.8426989,9.55554785 10.8426989,8.05333333 C10.8426989,6.55111881 9.57269754,5.33333333 8.00607143,5.33333333 C6.43944532,5.33333333 5.16944392,6.55111881 5.16944392,8.05333333 C5.16944392,9.55554785 6.43944532,10.7733333 8.00607143,10.7733333 Z" id="设置-copy-3" fill="#7C94B6"></path>
        </g>
    </g>
</svg>